<mxfile host="app.diagrams.net" modified="2020-12-15T20:29:41.203Z" agent="5.0 (Windows NT 10.0; Win64; x64) AppleWebKit/537.36 (KHTML, like Gecko) Chrome/87.0.4280.88 Safari/537.36" etag="xPMXi7pvcITzw_4JqQ1f" version="13.10.9" type="github">
  <diagram id="5bAqCZtf6bhsNojVWd_q" name="Page-1">
    <mxGraphModel dx="1038" dy="548" grid="1" gridSize="10" guides="1" tooltips="1" connect="1" arrows="1" fold="1" page="1" pageScale="1" pageWidth="827" pageHeight="1169" math="0" shadow="0">
      <root>
        <mxCell id="0" />
        <mxCell id="1" parent="0" />
        <mxCell id="JF4pLr-QDxkC3Qtm4SFt-1" value="&lt;font style=&quot;font-size: 33px&quot;&gt;Booking&lt;/font&gt;" style="ellipse;whiteSpace=wrap;html=1;aspect=fixed;" vertex="1" parent="1">
          <mxGeometry x="304" y="230" width="150" height="150" as="geometry" />
        </mxCell>
        <mxCell id="JF4pLr-QDxkC3Qtm4SFt-2" value="&lt;font style=&quot;font-size: 18px&quot;&gt;Book room in a hotel&lt;/font&gt;" style="rounded=0;whiteSpace=wrap;html=1;" vertex="1" parent="1">
          <mxGeometry x="70" y="170" width="180" height="40" as="geometry" />
        </mxCell>
        <mxCell id="JF4pLr-QDxkC3Qtm4SFt-3" value="" style="endArrow=classic;html=1;exitX=0.75;exitY=1;exitDx=0;exitDy=0;" edge="1" parent="1" source="JF4pLr-QDxkC3Qtm4SFt-2">
          <mxGeometry width="50" height="50" relative="1" as="geometry">
            <mxPoint x="220" y="220" as="sourcePoint" />
            <mxPoint x="310" y="270" as="targetPoint" />
          </mxGeometry>
        </mxCell>
        <mxCell id="JF4pLr-QDxkC3Qtm4SFt-4" value="&lt;font style=&quot;font-size: 18px&quot;&gt;Book bus/train/plane/cab&lt;/font&gt;" style="rounded=0;whiteSpace=wrap;html=1;" vertex="1" parent="1">
          <mxGeometry x="70" y="280" width="160" height="50" as="geometry" />
        </mxCell>
        <mxCell id="JF4pLr-QDxkC3Qtm4SFt-5" value="" style="endArrow=classic;html=1;exitX=1;exitY=0.5;exitDx=0;exitDy=0;entryX=0;entryY=0.5;entryDx=0;entryDy=0;" edge="1" parent="1" source="JF4pLr-QDxkC3Qtm4SFt-4" target="JF4pLr-QDxkC3Qtm4SFt-1">
          <mxGeometry width="50" height="50" relative="1" as="geometry">
            <mxPoint x="390" y="280" as="sourcePoint" />
            <mxPoint x="440" y="230" as="targetPoint" />
          </mxGeometry>
        </mxCell>
        <mxCell id="JF4pLr-QDxkC3Qtm4SFt-6" value="&lt;font style=&quot;font-size: 16px&quot;&gt;Book travel package&lt;/font&gt;" style="rounded=0;whiteSpace=wrap;html=1;" vertex="1" parent="1">
          <mxGeometry x="70" y="380" width="160" height="40" as="geometry" />
        </mxCell>
        <mxCell id="JF4pLr-QDxkC3Qtm4SFt-7" value="" style="endArrow=classic;html=1;exitX=1;exitY=0.5;exitDx=0;exitDy=0;entryX=0.029;entryY=0.711;entryDx=0;entryDy=0;entryPerimeter=0;" edge="1" parent="1" source="JF4pLr-QDxkC3Qtm4SFt-6" target="JF4pLr-QDxkC3Qtm4SFt-1">
          <mxGeometry width="50" height="50" relative="1" as="geometry">
            <mxPoint x="390" y="280" as="sourcePoint" />
            <mxPoint x="440" y="230" as="targetPoint" />
          </mxGeometry>
        </mxCell>
        <mxCell id="JF4pLr-QDxkC3Qtm4SFt-8" value="&lt;font style=&quot;font-size: 15px&quot;&gt;Booking confirmation&lt;/font&gt;" style="rounded=0;whiteSpace=wrap;html=1;" vertex="1" parent="1">
          <mxGeometry x="530" y="160" width="150" height="40" as="geometry" />
        </mxCell>
        <mxCell id="JF4pLr-QDxkC3Qtm4SFt-10" value="" style="endArrow=classic;html=1;entryX=0;entryY=0.5;entryDx=0;entryDy=0;" edge="1" parent="1" target="JF4pLr-QDxkC3Qtm4SFt-8">
          <mxGeometry width="50" height="50" relative="1" as="geometry">
            <mxPoint x="430" y="260" as="sourcePoint" />
            <mxPoint x="480" y="210" as="targetPoint" />
          </mxGeometry>
        </mxCell>
        <mxCell id="JF4pLr-QDxkC3Qtm4SFt-11" value="&lt;font style=&quot;font-size: 16px&quot;&gt;Booking Details&lt;/font&gt;" style="rounded=1;whiteSpace=wrap;html=1;" vertex="1" parent="1">
          <mxGeometry x="570" y="260" width="160" height="50" as="geometry" />
        </mxCell>
        <mxCell id="JF4pLr-QDxkC3Qtm4SFt-13" value="&lt;font style=&quot;font-size: 17px&quot;&gt;Customer info&lt;/font&gt;" style="rounded=0;whiteSpace=wrap;html=1;" vertex="1" parent="1">
          <mxGeometry x="70" y="440" width="180" height="50" as="geometry" />
        </mxCell>
        <mxCell id="JF4pLr-QDxkC3Qtm4SFt-14" value="" style="endArrow=classic;html=1;exitX=1;exitY=0.5;exitDx=0;exitDy=0;" edge="1" parent="1" source="JF4pLr-QDxkC3Qtm4SFt-13">
          <mxGeometry width="50" height="50" relative="1" as="geometry">
            <mxPoint x="390" y="360" as="sourcePoint" />
            <mxPoint x="360" y="380" as="targetPoint" />
          </mxGeometry>
        </mxCell>
        <mxCell id="JF4pLr-QDxkC3Qtm4SFt-15" value="" style="endArrow=classic;html=1;exitX=0.984;exitY=0.337;exitDx=0;exitDy=0;exitPerimeter=0;" edge="1" parent="1" source="JF4pLr-QDxkC3Qtm4SFt-1">
          <mxGeometry width="50" height="50" relative="1" as="geometry">
            <mxPoint x="390" y="360" as="sourcePoint" />
            <mxPoint x="570" y="281" as="targetPoint" />
          </mxGeometry>
        </mxCell>
        <mxCell id="JF4pLr-QDxkC3Qtm4SFt-16" value="&lt;font style=&quot;font-size: 18px&quot;&gt;Payment Details&lt;/font&gt;" style="rounded=0;whiteSpace=wrap;html=1;" vertex="1" parent="1">
          <mxGeometry x="570" y="350" width="190" height="50" as="geometry" />
        </mxCell>
        <mxCell id="JF4pLr-QDxkC3Qtm4SFt-17" value="" style="endArrow=classic;html=1;entryX=0;entryY=0.5;entryDx=0;entryDy=0;exitX=1;exitY=1;exitDx=0;exitDy=0;" edge="1" parent="1" source="JF4pLr-QDxkC3Qtm4SFt-1" target="JF4pLr-QDxkC3Qtm4SFt-16">
          <mxGeometry width="50" height="50" relative="1" as="geometry">
            <mxPoint x="390" y="360" as="sourcePoint" />
            <mxPoint x="440" y="310" as="targetPoint" />
          </mxGeometry>
        </mxCell>
        <mxCell id="JF4pLr-QDxkC3Qtm4SFt-18" value="" style="endArrow=classic;html=1;exitX=0.739;exitY=0.956;exitDx=0;exitDy=0;exitPerimeter=0;entryX=0;entryY=0.5;entryDx=0;entryDy=0;" edge="1" parent="1" source="JF4pLr-QDxkC3Qtm4SFt-1" target="JF4pLr-QDxkC3Qtm4SFt-19">
          <mxGeometry width="50" height="50" relative="1" as="geometry">
            <mxPoint x="390" y="360" as="sourcePoint" />
            <mxPoint x="570" y="450" as="targetPoint" />
          </mxGeometry>
        </mxCell>
        <mxCell id="JF4pLr-QDxkC3Qtm4SFt-19" value="&lt;font style=&quot;font-size: 17px&quot;&gt;Route Map&lt;/font&gt;" style="rounded=0;whiteSpace=wrap;html=1;" vertex="1" parent="1">
          <mxGeometry x="605" y="430" width="120" height="50" as="geometry" />
        </mxCell>
      </root>
    </mxGraphModel>
  </diagram>
</mxfile>
